<?xml version="1.0" encoding="utf-8"?>
<!-- Generator: Adobe Illustrator 23.0.5, SVG Export Plug-In . SVG Version: 6.00 Build 0)  -->
<svg version="1.1" id="Layer_1" xmlns="http://www.w3.org/2000/svg" xmlns:xlink="http://www.w3.org/1999/xlink" x="0px" y="0px"
	 viewBox="0 0 294.82 278.15" style="enable-background:new 0 0 294.82 278.15;" xml:space="preserve">
<style type="text/css">
	.st0{fill:#174888;}
	.st1{fill:#184982;}
	.st2{fill:url(#SVGID_1_);}
	.st3{fill:url(#SVGID_2_);}
	.st4{fill:url(#SVGID_3_);}
	.st5{fill:url(#SVGID_4_);}
	.st6{fill:url(#SVGID_5_);}
	.st7{fill:url(#SVGID_6_);}
	.st8{fill:url(#SVGID_7_);}
	.st9{fill:url(#SVGID_8_);}
	.st10{fill:url(#SVGID_9_);}
	.st11{fill:url(#SVGID_10_);}
	.st12{fill:url(#SVGID_11_);}
	.st13{fill:url(#SVGID_12_);}
	.st14{fill:url(#SVGID_13_);}
</style>
<g>
	<path class="st0" d="M73.29,227.94H18.81v-6.39c4.58,1.65,9.22,2.48,13.91,2.48h23.96l-2.17-2.11H34.15c-3.1,0-5.73-1.07-7.88-3.21
		l-4.23-4.15c-0.71-0.66-1.83-1.18-3.39-1.57l6.93-3.39l6.61,6.58c1.2,1.22,2.87,1.83,5.03,1.83h22.16c0.92,0,1.99,0.65,3.23,1.96
		l3.81,4.07h6.88V227.94z"/>
	<path class="st0" d="M114.03,227.94H95.46c-2.4,0-4.18-0.56-5.34-1.67L88,224.23l-3.81,1.9c-2.4,1.2-4.37,1.8-5.92,1.8h-8.68v-3.91
		h10.47c1.3,0,2.75-0.38,4.34-1.15l1.59-0.76l-2.12-2.01c-0.6-0.57-1.15-1.04-1.64-1.4c-0.49-0.36-1.02-0.63-1.59-0.82
		c-0.56-0.19-1.2-0.32-1.9-0.39c-0.71-0.07-1.59-0.1-2.65-0.1h-4.13l10.69-5.25c1.38-0.68,3.47-1.02,6.29-1.02h16.5
		c1.13,0,2.31-0.44,3.54-1.3v2.56c0,0.89-0.74,1.76-2.22,2.61l-12.8,6.29l1.48,1.54c0.78,0.8,1.99,1.2,3.65,1.2h14.92V227.94z
		 M96.52,205.99c0,0.45-0.92,1.37-2.75,2.77c-1.34-0.89-3.1-1.56-5.29-2.01c-1.55-0.31-2.33-0.73-2.33-1.25
		c0-0.42,2.06-1.45,6.19-3.11c0.04,0.31,0.28,0.63,0.74,0.95c0.46,0.32,0.93,0.64,1.43,0.94c0.49,0.3,0.95,0.6,1.38,0.89
		S96.52,205.73,96.52,205.99z M95.25,216.56c0-1.01-0.55-1.51-1.64-1.51h-5.87l4.18,4.1l1.32-0.65
		C94.58,217.83,95.25,217.18,95.25,216.56z"/>
	<path class="st0" d="M131.53,226.5c-1.69,0.96-3.83,1.44-6.4,1.44h-14.81v-3.91h7.04c0.32,0,0.65-0.05,1-0.14
		c0.35-0.1,0.68-0.22,0.98-0.38c0.3-0.16,0.54-0.33,0.71-0.51s0.27-0.37,0.27-0.56v-15.84c0-1.11-2.03-3.44-6.08-6.97
		c2.4,0,6.28-1.53,11.64-4.59v27.63c0,0.7,0.08,1.26,0.24,1.7c0.16,0.44,0.44,0.78,0.85,1.04c0.4,0.26,0.98,0.47,1.72,0.63
		C129.42,226.19,130.37,226.34,131.53,226.5z"/>
	<path class="st0" d="M161.63,227.26c-0.71,0.45-3.28,0.68-7.72,0.68c-2.58,0-4.73-0.08-6.45-0.25c-1.73-0.17-3.11-0.44-4.15-0.83
		c-1.04-0.39-1.78-0.91-2.22-1.55c-0.44-0.64-0.66-1.44-0.66-2.37v-16.34c0-1.11-2.03-3.44-6.08-6.97c2.72,0,6.59-1.53,11.64-4.59
		v25c0,0.87,0.16,1.64,0.48,2.3s0.86,1.24,1.64,1.75c0.78,0.5,1.81,0.95,3.09,1.33c1.29,0.38,2.9,0.73,4.84,1.04
		c0.67,0.1,1.47,0.22,2.41,0.34C159.37,226.91,160.43,227.07,161.63,227.26z"/>
	<path class="st0" d="M225.75,227.94h-8.99c0,1.72-0.63,2.91-1.9,3.55l-5.82,2.95c-2.08,1.04-3.99,1.57-5.71,1.57
		c-2.15,0-4.14-0.47-5.98-1.41l-13.81-6.94c-2.26-1.13-3.39-1.9-3.39-2.3c0-0.73,0.88-1.51,2.64-2.35l9.95-4.75l-2.43,2.14
		c-0.63,0.56-1.09,1.02-1.38,1.4c-0.28,0.37-0.42,0.66-0.42,0.85c0,0.5,1,1.25,3.02,2.24l10.74,5.32c2.4,1.18,3.98,1.77,4.76,1.77
		c0.56,0,1.73-0.59,3.49-1.77c0.46-0.3,0.69-1.05,0.69-2.27v-21.35c0-1.11-2.03-3.44-6.08-6.97c2.4,0,6.28-1.53,11.64-4.59v25.83
		c0,0.35,0.2,0.71,0.61,1.08c0.41,0.38,0.91,0.71,1.51,1.02c0.6,0.3,1.22,0.56,1.85,0.76s1.2,0.3,1.69,0.3h3.33V227.94z"/>
	<path class="st0" d="M260.77,227.94h-38.72v-3.91h4.97l-0.95-0.99c-0.56-0.49-0.85-0.95-0.85-1.38c0-0.92,0.78-1.77,2.33-2.53
		l19.36-9.6c-0.78,1.04-1.16,2.04-1.16,3c0,0.73,1.06,2.1,3.17,4.1L260.77,227.94z M245.9,224.02l-3.65-3.55
		c-1.16-1.11-1.75-1.96-1.75-2.53c-0.04,0.02-0.23,0.11-0.58,0.29c-0.35,0.17-0.73,0.38-1.14,0.61c-0.41,0.23-0.78,0.47-1.11,0.7
		c-0.34,0.24-0.5,0.42-0.5,0.56c0,0.45,0.32,0.97,0.95,1.57l2.49,2.35c0.56,0.02,1.08,0.03,1.56,0.03c0.48,0,0.94,0,1.4,0
		s0.87,0,1.24,0C245.19,224.05,245.55,224.04,245.9,224.02z"/>
	<path class="st0" d="M272.03,188.56c-0.32,0.09-0.71,0.22-1.19,0.39c-0.48,0.17-1.01,0.39-1.61,0.65l-1.38,0.83
		c-0.42,0.26-0.63,0.43-0.63,0.52c0,0.19,0.23,0.39,0.69,0.6l2.43,1.15c0.71,0.35,1.06,0.72,1.06,1.12c0,0.44-0.26,0.78-0.79,1.04
		l-3.81,1.83c-1.09,0.54-2.64,0.81-4.66,0.81c-0.81,0-1.53-0.07-2.17-0.21c0.85-0.07,1.69-0.34,2.54-0.81l1.38-0.78
		c0.67-0.38,1-0.68,1-0.89c0-0.14-0.32-0.37-0.95-0.68l-1.96-0.97c-0.88-0.43-1.32-0.84-1.32-1.23c0-0.42,0.46-0.84,1.38-1.28
		l3.23-1.51c0.99-0.45,2.56-0.68,4.71-0.68C270.53,188.48,271.22,188.51,272.03,188.56z M290.71,227.26
		c-0.71,0.45-3.28,0.68-7.72,0.68c-2.58,0-4.73-0.08-6.45-0.25c-1.73-0.17-3.11-0.44-4.15-0.83c-1.04-0.39-1.78-0.91-2.22-1.55
		c-0.44-0.64-0.66-1.44-0.66-2.37v-16.34c0-1.11-2.03-3.44-6.08-6.97c2.72,0,6.59-1.53,11.64-4.59v25c0,0.87,0.16,1.64,0.48,2.3
		s0.86,1.24,1.64,1.75c0.78,0.5,1.81,0.95,3.09,1.33c1.29,0.38,2.9,0.73,4.84,1.04c0.67,0.1,1.47,0.22,2.41,0.34
		C288.44,226.91,289.51,227.07,290.71,227.26z"/>
</g>
<g>
	<path class="st1" d="M42.49,270.61H30.2v-0.82h1.16c1.08,0,1.8-0.04,2.18-0.13c0.87-0.2,1.31-0.64,1.31-1.34
		c0-0.35-0.16-0.94-0.48-1.76l-3.01-7.81h-9.25l-2.57,6.74c-0.6,1.57-0.9,2.47-0.9,2.71c0,1.06,1.21,1.6,3.62,1.6h0.7v0.82H12.64
		v-0.82c1.82-0.06,3-0.53,3.53-1.41c0.35-0.57,0.78-1.53,1.29-2.86l8.14-21.37l-0.39-0.94h3.88l9.34,23.87
		c0.55,1.4,1.28,2.23,2.18,2.5c0.47,0.14,1.09,0.21,1.88,0.21V270.61z M30.59,256.86l-3.93-10.03l-3.8,10.03H30.59z"/>
	<path class="st1" d="M78.06,270.61H68v-0.82h0.41c1.09,0,1.85-0.2,2.27-0.61c0.48-0.46,0.72-2.49,0.72-6.09v-3.36
		c0-3.27-1.12-4.91-3.36-4.91c-1.43,0-3.4,0.8-5.94,2.41v9.89c0,1.06,0.19,1.77,0.56,2.13c0.37,0.36,1.11,0.54,2.21,0.54v0.82h-9.17
		v-0.82c1.64,0,2.67-0.46,3.08-1.39c0.22-0.49,0.33-1.13,0.33-1.93v-7.93c0-1.06-0.27-1.93-0.81-2.6c-0.6-0.74-1.43-1.11-2.51-1.11
		c-1.37,0-3.36,0.83-5.98,2.5v9.8c0,1.41,0.39,2.23,1.16,2.46c0.42,0.14,1.08,0.21,1.96,0.21v0.82h-9.3v-0.82
		c1.22,0,2.07-0.27,2.53-0.8c0.42-0.48,0.63-1.32,0.63-2.52v-8.42c0-0.71-0.05-1.2-0.15-1.45c-0.16-0.41-0.54-0.65-1.13-0.74
		l-1.75-0.23v-0.74l5.37-1.8h0.68v3.44c3.39-2.29,6.04-3.44,7.94-3.44c1.09,0,2.02,0.31,2.78,0.94s1.25,1.46,1.47,2.5
		c1.22-0.76,2.14-1.29,2.75-1.62c1.06-0.59,2.04-1.04,2.92-1.36c0.83-0.31,1.57-0.46,2.23-0.46c2.98,0,4.47,2.17,4.47,6.51
		c0,3.22-0.04,5.97-0.13,8.25c-0.04,1.29,0.74,1.93,2.36,1.93h1.44V270.61z"/>
	<path class="st1" d="M95.54,268.76c-2.02,1.58-3.5,2.37-4.43,2.37c-1.25,0-1.94-0.87-2.05-2.62c-2.23,1.75-3.96,2.62-5.19,2.62
		c-1.21,0-2.18-0.29-2.92-0.88c-0.81-0.63-1.22-1.51-1.22-2.65c0-1.51,0.81-2.62,2.44-3.34c0.55-0.24,1.69-0.62,3.43-1.15
		c1.43-0.43,2.55-0.89,3.38-1.36v-3.4c0-1.26-0.25-2.18-0.76-2.75c-0.73-0.83-1.56-1.24-2.51-1.24c-0.61,0-1.21,0.2-1.81,0.59
		c-0.64,0.45-0.96,0.95-0.96,1.51c0,0.22,0.07,0.5,0.22,0.82l-3.03,1.43c-0.09-0.28-0.13-0.48-0.13-0.61c0-0.63,0.47-1.41,1.42-2.33
		c0.74-0.71,1.51-1.3,2.29-1.76c1.03-0.6,2-0.9,2.9-0.9c1.99,0,3.56,0.76,4.69,2.29c0.45,0.6,0.68,1.83,0.68,3.69v5.77
		c0,2.44,0.16,3.77,0.48,4.01c0.15,0.13,0.37,0.19,0.68,0.19c0.68,0,1.41-0.31,2.18-0.94L95.54,268.76z M88.97,267.73v-5.12
		c-0.57,0.32-1.45,0.72-2.64,1.2c-1.37,0.54-2.2,0.92-2.51,1.11c-0.83,0.55-1.24,1.27-1.24,2.16c0,0.71,0.25,1.32,0.76,1.8
		c0.51,0.49,1.13,0.74,1.88,0.74C85.85,269.62,87.1,268.99,88.97,267.73z"/>
	<path class="st1" d="M106.12,270.61H96.06v-0.82c1.27,0,2.17-0.17,2.71-0.53c0.67-0.43,1-1.22,1-2.35v-20.76
		c0-0.63-0.07-1.04-0.22-1.24c-0.17-0.27-0.56-0.43-1.16-0.48l-2.01-0.21v-0.73l5.72-1.76h0.65v25.48c0,1.72,0.87,2.58,2.6,2.58
		h0.76V270.61z"/>
	<path class="st1" d="M147.47,270.61h-12.29v-0.82h1.16c1.08,0,1.8-0.04,2.18-0.13c0.87-0.2,1.31-0.64,1.31-1.34
		c0-0.35-0.16-0.94-0.48-1.76l-3.01-7.81h-9.25l-2.57,6.74c-0.6,1.57-0.9,2.47-0.9,2.71c0,1.06,1.21,1.6,3.62,1.6h0.7v0.82h-10.32
		v-0.82c1.82-0.06,3-0.53,3.53-1.41c0.35-0.57,0.78-1.53,1.29-2.86l8.14-21.37l-0.39-0.94h3.88l9.34,23.87
		c0.55,1.4,1.28,2.23,2.18,2.5c0.47,0.14,1.09,0.21,1.88,0.21V270.61z M135.58,256.86l-3.93-10.03l-3.8,10.03H135.58z"/>
	<path class="st1" d="M158.01,270.61h-10.06v-0.82c1.27,0,2.17-0.17,2.71-0.53c0.67-0.43,1-1.22,1-2.35v-20.76
		c0-0.63-0.07-1.04-0.22-1.24c-0.17-0.27-0.56-0.43-1.16-0.48l-2.01-0.21v-0.73l5.72-1.76h0.65v25.48c0,1.72,0.87,2.58,2.6,2.58
		h0.76V270.61z"/>
	<path class="st1" d="M176.65,263.83h-15.93v-1.74h15.93V263.83z"/>
	<path class="st1" d="M211.06,259.9c-2.08,0.13-3.12,1.03-3.12,2.71v5.98c-3.61,1.8-7.6,2.71-11.98,2.71
		c-2.78,0-5.27-0.59-7.46-1.76c-2.31-1.25-4.07-3.03-5.26-5.35c-1.08-2.07-1.62-4.21-1.62-6.42c0-3.69,1.27-6.96,3.8-9.8
		c2.81-3.16,6.74-4.74,11.78-4.74c2.27,0,4.83,0.39,7.68,1.17c0.71,0.2,1.12,0.29,1.22,0.29c0.44,0,0.78-0.1,1.03-0.29h0.63v6.95
		h-0.89c-1.05-4.69-4.1-7.03-9.17-7.03c-3.74,0-6.69,1.32-8.86,3.95c-2.02,2.46-3.03,5.54-3.03,9.24c0,4.06,1.27,7.25,3.8,9.57
		c2.28,2.11,4.88,3.17,7.79,3.17c2.27,0,4.55-0.55,6.83-1.64v-5.42c0-1.26-0.27-2.12-0.8-2.58c-0.53-0.46-1.46-0.69-2.78-0.69h-1.66
		v-0.78h12.07V259.9z"/>
	<path class="st1" d="M234.8,270.61h-9.65v-0.82c1.19,0,2.02-0.23,2.49-0.69c0.42-0.42,0.69-1.22,0.82-2.39s0.19-3.39,0.19-6.63
		c0-3.47-1.36-5.21-4.08-5.21c-1.3,0-3.05,0.68-5.26,2.04v10.31c0,1.04,0.22,1.73,0.66,2.08c0.39,0.34,1.14,0.5,2.25,0.5v0.82h-8.95
		v-0.82c1.21-0.06,2.02-0.34,2.44-0.84c0.39-0.45,0.59-1.27,0.59-2.48v-20.59c0-0.84-0.37-1.31-1.11-1.41l-1.92-0.25v-0.73
		l5.32-1.76h0.72v14.09c3.19-1.81,5.64-2.71,7.38-2.71c3.3,0,4.95,2.14,4.95,6.42c0,3.19-0.07,6.07-0.22,8.63
		c0.03,0.78,0.47,1.27,1.33,1.47c0.45,0.11,1.13,0.17,2.05,0.17V270.61z"/>
	<path class="st1" d="M252.87,268.76c-2.02,1.58-3.5,2.37-4.43,2.37c-1.25,0-1.94-0.87-2.05-2.62c-2.23,1.75-3.96,2.62-5.19,2.62
		c-1.21,0-2.18-0.29-2.92-0.88c-0.82-0.63-1.22-1.51-1.22-2.65c0-1.51,0.81-2.62,2.44-3.34c0.55-0.24,1.69-0.62,3.43-1.15
		c1.43-0.43,2.55-0.89,3.38-1.36v-3.4c0-1.26-0.25-2.18-0.76-2.75c-0.73-0.83-1.56-1.24-2.51-1.24c-0.61,0-1.21,0.2-1.81,0.59
		c-0.64,0.45-0.96,0.95-0.96,1.51c0,0.22,0.07,0.5,0.22,0.82l-3.03,1.43c-0.09-0.28-0.13-0.48-0.13-0.61c0-0.63,0.47-1.41,1.42-2.33
		c0.74-0.71,1.51-1.3,2.29-1.76c1.03-0.6,2-0.9,2.9-0.9c1.99,0,3.56,0.76,4.69,2.29c0.45,0.6,0.68,1.83,0.68,3.69v5.77
		c0,2.44,0.16,3.77,0.48,4.01c0.15,0.13,0.37,0.19,0.68,0.19c0.68,0,1.41-0.31,2.18-0.94L252.87,268.76z M246.3,267.73v-5.12
		c-0.57,0.32-1.45,0.72-2.64,1.2c-1.37,0.54-2.2,0.92-2.51,1.11c-0.83,0.55-1.24,1.27-1.24,2.16c0,0.71,0.25,1.32,0.76,1.8
		c0.51,0.49,1.13,0.74,1.88,0.74C243.19,269.62,244.44,268.99,246.3,267.73z"/>
	<path class="st1" d="M275.39,268.97l-5.72,2.16h-0.55v-3.06c-2.94,2.04-5.24,3.06-6.92,3.06c-2.76,0-4.83-1.38-6.2-4.16
		c-0.64-1.26-0.96-2.64-0.96-4.16c0-3.74,1.6-6.54,4.8-8.42c1.5-0.87,3.13-1.3,4.89-1.3c1.53,0,2.99,0.27,4.39,0.82v-8.33
		c0-0.48-0.17-0.8-0.52-0.97c-0.17-0.08-0.58-0.16-1.22-0.23l-1.46-0.17v-0.73l6.2-1.76v25.23c0,1.05,0.44,1.57,1.31,1.57
		c0.26,0,0.56-0.05,0.89-0.15l1.07-0.32V268.97z M269.13,267.12v-9.64c-1.53-2.14-3.3-3.21-5.32-3.21c-2.34,0-4.02,1.16-5.04,3.48
		c-0.48,1.09-0.72,2.29-0.72,3.61c0,1.88,0.47,3.6,1.42,5.16c1.12,1.83,2.59,2.75,4.41,2.75
		C265.26,269.29,267.02,268.57,269.13,267.12z"/>
</g>
<linearGradient id="SVGID_1_" gradientUnits="userSpaceOnUse" x1="72.9053" y1="102.4286" x2="215.7699" y2="102.4286" gradientTransform="matrix(0.9397 -0.342 0.342 0.9397 -26.8767 56.826)">
	<stop  offset="0.1269" style="stop-color:#FFF33B"/>
	<stop  offset="0.2069" style="stop-color:#FFEB35"/>
	<stop  offset="0.261" style="stop-color:#FFE52E"/>
	<stop  offset="0.4543" style="stop-color:#FFD533"/>
	<stop  offset="0.5367" style="stop-color:#FFD334"/>
	<stop  offset="0.6104" style="stop-color:#FECB36"/>
	<stop  offset="0.6807" style="stop-color:#FBBE38"/>
	<stop  offset="0.7489" style="stop-color:#F7AB3B"/>
	<stop  offset="0.8157" style="stop-color:#F3933C"/>
	<stop  offset="0.8814" style="stop-color:#EF763C"/>
	<stop  offset="0.945" style="stop-color:#EA4F3A"/>
	<stop  offset="0.9645" style="stop-color:#E93E3A"/>
</linearGradient>
<circle class="st2" cx="143.79" cy="103.71" r="71.42"/>
<linearGradient id="SVGID_2_" gradientUnits="userSpaceOnUse" x1="54.6171" y1="120.7417" x2="73.2491" y2="120.7417" gradientTransform="matrix(2.422 -1.1979 0.0806 1.0906 -106.9188 103.0383)">
	<stop  offset="0.1269" style="stop-color:#FFF33B"/>
	<stop  offset="0.2069" style="stop-color:#FFEB35"/>
	<stop  offset="0.261" style="stop-color:#FFE52E"/>
	<stop  offset="0.4543" style="stop-color:#FFD533"/>
	<stop  offset="0.5367" style="stop-color:#FFD334"/>
	<stop  offset="0.6104" style="stop-color:#FECB36"/>
	<stop  offset="0.6807" style="stop-color:#FBBE38"/>
	<stop  offset="0.7489" style="stop-color:#F7AB3B"/>
	<stop  offset="0.8157" style="stop-color:#F3933C"/>
	<stop  offset="0.8814" style="stop-color:#EF763C"/>
	<stop  offset="0.945" style="stop-color:#EA4F3A"/>
	<stop  offset="0.9645" style="stop-color:#E93E3A"/>
</linearGradient>
<polygon class="st3" points="80.27,147.44 37.11,172.36 35.07,168.83 78.23,143.91 "/>
<linearGradient id="SVGID_3_" gradientUnits="userSpaceOnUse" x1="220.0479" y1="89.504" x2="238.68" y2="89.504" gradientTransform="matrix(0.9397 -0.342 0.342 0.9397 -26.8767 56.826)">
	<stop  offset="0.1269" style="stop-color:#FFF33B"/>
	<stop  offset="0.2069" style="stop-color:#FFEB35"/>
	<stop  offset="0.261" style="stop-color:#FFE52E"/>
	<stop  offset="0.4543" style="stop-color:#FFD533"/>
	<stop  offset="0.5367" style="stop-color:#FFD334"/>
	<stop  offset="0.6104" style="stop-color:#FECB36"/>
	<stop  offset="0.6807" style="stop-color:#FBBE38"/>
	<stop  offset="0.7489" style="stop-color:#F7AB3B"/>
	<stop  offset="0.8157" style="stop-color:#F3933C"/>
	<stop  offset="0.8814" style="stop-color:#EF763C"/>
	<stop  offset="0.945" style="stop-color:#EA4F3A"/>
	<stop  offset="0.9645" style="stop-color:#E93E3A"/>
</linearGradient>
<polygon class="st4" points="228.17,59.7 212.4,68.8 210.37,65.27 226.13,56.17 "/>
<linearGradient id="SVGID_4_" gradientUnits="userSpaceOnUse" x1="159.0956" y1="184.0843" x2="166.2671" y2="184.0843" gradientTransform="matrix(-0.9971 0.2425 -0.6677 -1.5038 473.6929 420.8284)">
	<stop  offset="0.1269" style="stop-color:#FFF33B"/>
	<stop  offset="0.2069" style="stop-color:#FFEB35"/>
	<stop  offset="0.261" style="stop-color:#FFE52E"/>
	<stop  offset="0.4543" style="stop-color:#FFD533"/>
	<stop  offset="0.5367" style="stop-color:#FFD334"/>
	<stop  offset="0.6104" style="stop-color:#FECB36"/>
	<stop  offset="0.6807" style="stop-color:#FBBE38"/>
	<stop  offset="0.7489" style="stop-color:#F7AB3B"/>
	<stop  offset="0.8157" style="stop-color:#F3933C"/>
	<stop  offset="0.8814" style="stop-color:#EF763C"/>
	<stop  offset="0.945" style="stop-color:#EA4F3A"/>
	<stop  offset="0.9645" style="stop-color:#E93E3A"/>
</linearGradient>
<polygon class="st5" points="194.36,197.57 179.24,171.38 182.76,169.34 197.88,195.53 "/>
<linearGradient id="SVGID_5_" gradientUnits="userSpaceOnUse" x1="132.8809" y1="29.6283" x2="140.0525" y2="29.6283" gradientTransform="matrix(-0.9397 0.342 -0.342 -0.9397 239.4467 10.898)">
	<stop  offset="0.1269" style="stop-color:#FFF33B"/>
	<stop  offset="0.2069" style="stop-color:#FFEB35"/>
	<stop  offset="0.261" style="stop-color:#FFE52E"/>
	<stop  offset="0.4543" style="stop-color:#FFD533"/>
	<stop  offset="0.5367" style="stop-color:#FFD334"/>
	<stop  offset="0.6104" style="stop-color:#FECB36"/>
	<stop  offset="0.6807" style="stop-color:#FBBE38"/>
	<stop  offset="0.7489" style="stop-color:#F7AB3B"/>
	<stop  offset="0.8157" style="stop-color:#F3933C"/>
	<stop  offset="0.8814" style="stop-color:#EF763C"/>
	<stop  offset="0.945" style="stop-color:#EA4F3A"/>
	<stop  offset="0.9645" style="stop-color:#E93E3A"/>
</linearGradient>
<polygon class="st6" points="103.86,38.63 94.76,22.87 98.29,20.83 107.39,36.59 "/>
<linearGradient id="SVGID_6_" gradientUnits="userSpaceOnUse" x1="215.749" y1="131.1747" x2="240.9617" y2="131.1747" gradientTransform="matrix(-0.9397 0.342 -0.342 -0.9397 492.7897 144.8001)">
	<stop  offset="0.1269" style="stop-color:#FFF33B"/>
	<stop  offset="0.2069" style="stop-color:#FFEB35"/>
	<stop  offset="0.261" style="stop-color:#FFE52E"/>
	<stop  offset="0.4543" style="stop-color:#FFD533"/>
	<stop  offset="0.5367" style="stop-color:#FFD334"/>
	<stop  offset="0.6104" style="stop-color:#FECB36"/>
	<stop  offset="0.6807" style="stop-color:#FBBE38"/>
	<stop  offset="0.7489" style="stop-color:#F7AB3B"/>
	<stop  offset="0.8157" style="stop-color:#F3933C"/>
	<stop  offset="0.8814" style="stop-color:#EF763C"/>
	<stop  offset="0.945" style="stop-color:#EA4F3A"/>
	<stop  offset="0.9645" style="stop-color:#E93E3A"/>
</linearGradient>
<rect x="220.67" y="97.6" class="st7" width="25.35" height="4.07"/>
<linearGradient id="SVGID_7_" gradientUnits="userSpaceOnUse" x1="49.4086" y1="70.0924" x2="73.4886" y2="70.0924" gradientTransform="matrix(0.9397 -0.342 0.342 0.9397 -26.8767 56.826)">
	<stop  offset="0.1269" style="stop-color:#FFF33B"/>
	<stop  offset="0.2069" style="stop-color:#FFEB35"/>
	<stop  offset="0.261" style="stop-color:#FFE52E"/>
	<stop  offset="0.4543" style="stop-color:#FFD533"/>
	<stop  offset="0.5367" style="stop-color:#FFD334"/>
	<stop  offset="0.6104" style="stop-color:#FECB36"/>
	<stop  offset="0.6807" style="stop-color:#FBBE38"/>
	<stop  offset="0.7489" style="stop-color:#F7AB3B"/>
	<stop  offset="0.8157" style="stop-color:#F3933C"/>
	<stop  offset="0.8814" style="stop-color:#EF763C"/>
	<stop  offset="0.945" style="stop-color:#EA4F3A"/>
	<stop  offset="0.9645" style="stop-color:#E93E3A"/>
</linearGradient>
<polygon class="st8" points="42.77,99.64 66.91,99.64 66.91,103.71 42.77,103.71 "/>
<linearGradient id="SVGID_8_" gradientUnits="userSpaceOnUse" x1="169.5598" y1="22.5308" x2="179.6121" y2="22.5308" gradientTransform="matrix(0.9397 -0.342 0.342 0.9397 -26.8767 56.826)">
	<stop  offset="0.1269" style="stop-color:#FFF33B"/>
	<stop  offset="0.2069" style="stop-color:#FFEB35"/>
	<stop  offset="0.261" style="stop-color:#FFE52E"/>
	<stop  offset="0.4543" style="stop-color:#FFD533"/>
	<stop  offset="0.5367" style="stop-color:#FFD334"/>
	<stop  offset="0.6104" style="stop-color:#FECB36"/>
	<stop  offset="0.6807" style="stop-color:#FBBE38"/>
	<stop  offset="0.7489" style="stop-color:#F7AB3B"/>
	<stop  offset="0.8157" style="stop-color:#F3933C"/>
	<stop  offset="0.8814" style="stop-color:#EF763C"/>
	<stop  offset="0.945" style="stop-color:#EA4F3A"/>
	<stop  offset="0.9645" style="stop-color:#E93E3A"/>
</linearGradient>
<polygon class="st9" points="142.85,27.39 142.85,9.19 146.92,9.19 146.92,27.39 "/>
<linearGradient id="SVGID_9_" gradientUnits="userSpaceOnUse" x1="116.6107" y1="178.3713" x2="124.0239" y2="178.3713" gradientTransform="matrix(0.9397 -0.342 0.342 0.9397 -26.8767 56.826)">
	<stop  offset="0.1269" style="stop-color:#FFF33B"/>
	<stop  offset="0.2069" style="stop-color:#FFEB35"/>
	<stop  offset="0.261" style="stop-color:#FFE52E"/>
	<stop  offset="0.4543" style="stop-color:#FFD533"/>
	<stop  offset="0.5367" style="stop-color:#FFD334"/>
	<stop  offset="0.6104" style="stop-color:#FECB36"/>
	<stop  offset="0.6807" style="stop-color:#FBBE38"/>
	<stop  offset="0.7489" style="stop-color:#F7AB3B"/>
	<stop  offset="0.8157" style="stop-color:#F3933C"/>
	<stop  offset="0.8814" style="stop-color:#EF763C"/>
	<stop  offset="0.945" style="stop-color:#EA4F3A"/>
	<stop  offset="0.9645" style="stop-color:#E93E3A"/>
</linearGradient>
<polygon class="st10" points="145.24,188.77 145.24,177.81 149.14,177.81 149.14,188.77 "/>
<linearGradient id="SVGID_10_" gradientUnits="userSpaceOnUse" x1="196.0089" y1="164.4469" x2="210.8284" y2="164.4469" gradientTransform="matrix(-1.7564 -0.1295 -1.3153 -1.5016 805.4207 423.1241)">
	<stop  offset="0.1269" style="stop-color:#FFF33B"/>
	<stop  offset="0.2069" style="stop-color:#FFEB35"/>
	<stop  offset="0.261" style="stop-color:#FFE52E"/>
	<stop  offset="0.4543" style="stop-color:#FFD533"/>
	<stop  offset="0.5367" style="stop-color:#FFD334"/>
	<stop  offset="0.6104" style="stop-color:#FECB36"/>
	<stop  offset="0.6807" style="stop-color:#FBBE38"/>
	<stop  offset="0.7489" style="stop-color:#F7AB3B"/>
	<stop  offset="0.8157" style="stop-color:#F3933C"/>
	<stop  offset="0.8814" style="stop-color:#EF763C"/>
	<stop  offset="0.945" style="stop-color:#EA4F3A"/>
	<stop  offset="0.9645" style="stop-color:#E93E3A"/>
</linearGradient>
<polygon class="st11" points="250.27,162.84 211.39,140.39 213.42,136.86 252.31,159.31 "/>
<linearGradient id="SVGID_11_" gradientUnits="userSpaceOnUse" x1="93.4724" y1="45.1488" x2="108.2919" y2="45.1488" gradientTransform="matrix(-0.9397 0.342 -0.342 -0.9397 180.5873 66.8803)">
	<stop  offset="0.1269" style="stop-color:#FFF33B"/>
	<stop  offset="0.2069" style="stop-color:#FFEB35"/>
	<stop  offset="0.261" style="stop-color:#FFE52E"/>
	<stop  offset="0.4543" style="stop-color:#FFD533"/>
	<stop  offset="0.5367" style="stop-color:#FFD334"/>
	<stop  offset="0.6104" style="stop-color:#FECB36"/>
	<stop  offset="0.6807" style="stop-color:#FBBE38"/>
	<stop  offset="0.7489" style="stop-color:#F7AB3B"/>
	<stop  offset="0.8157" style="stop-color:#F3933C"/>
	<stop  offset="0.8814" style="stop-color:#EF763C"/>
	<stop  offset="0.945" style="stop-color:#EA4F3A"/>
	<stop  offset="0.9645" style="stop-color:#E93E3A"/>
</linearGradient>
<polygon class="st12" points="77.21,65.27 61.45,56.17 63.48,52.64 79.25,61.74 "/>
<linearGradient id="SVGID_12_" gradientUnits="userSpaceOnUse" x1="202.2019" y1="48.3592" x2="218.7628" y2="48.3592" gradientTransform="matrix(0.9397 -0.342 0.342 0.9397 -26.8767 56.826)">
	<stop  offset="0.1269" style="stop-color:#FFF33B"/>
	<stop  offset="0.2069" style="stop-color:#FFEB35"/>
	<stop  offset="0.261" style="stop-color:#FFE52E"/>
	<stop  offset="0.4543" style="stop-color:#FFD533"/>
	<stop  offset="0.5367" style="stop-color:#FFD334"/>
	<stop  offset="0.6104" style="stop-color:#FECB36"/>
	<stop  offset="0.6807" style="stop-color:#FBBE38"/>
	<stop  offset="0.7489" style="stop-color:#F7AB3B"/>
	<stop  offset="0.8157" style="stop-color:#F3933C"/>
	<stop  offset="0.8814" style="stop-color:#EF763C"/>
	<stop  offset="0.945" style="stop-color:#EA4F3A"/>
	<stop  offset="0.9645" style="stop-color:#E93E3A"/>
</linearGradient>
<polygon class="st13" points="181.14,37.14 190.24,21.38 193.77,23.42 184.67,39.18 "/>
<linearGradient id="SVGID_13_" gradientUnits="userSpaceOnUse" x1="71.897" y1="156.2654" x2="88.4579" y2="156.2654" gradientTransform="matrix(1.2072 -0.8054 0.1176 1.3285 -17.2613 40.1716)">
	<stop  offset="0.1269" style="stop-color:#FFF33B"/>
	<stop  offset="0.2069" style="stop-color:#FFEB35"/>
	<stop  offset="0.261" style="stop-color:#FFE52E"/>
	<stop  offset="0.4543" style="stop-color:#FFD533"/>
	<stop  offset="0.5367" style="stop-color:#FFD334"/>
	<stop  offset="0.6104" style="stop-color:#FECB36"/>
	<stop  offset="0.6807" style="stop-color:#FBBE38"/>
	<stop  offset="0.7489" style="stop-color:#F7AB3B"/>
	<stop  offset="0.8157" style="stop-color:#F3933C"/>
	<stop  offset="0.8814" style="stop-color:#EF763C"/>
	<stop  offset="0.945" style="stop-color:#EA4F3A"/>
	<stop  offset="0.9645" style="stop-color:#E93E3A"/>
</linearGradient>
<polygon class="st14" points="88.41,195.56 103.86,168.79 107.39,170.83 91.93,197.6 "/>
<g>
</g>
<g>
</g>
<g>
</g>
<g>
</g>
<g>
</g>
<g>
</g>
</svg>
